<?xml version="1.0" encoding="UTF-8"?>
<!DOCTYPE svg  PUBLIC '-//W3C//DTD SVG 1.1//EN'  'http://www.w3.org/Graphics/SVG/1.1/DTD/svg11.dtd'>
<svg clip-rule="evenodd" fill-rule="evenodd" stroke-linejoin="round" stroke-miterlimit="2" version="1.1" viewBox="0 0 7500 3146" xml:space="preserve" xmlns="http://www.w3.org/2000/svg"><g transform="scale(4.1667)"><path d="m1136.4 185.8h-60.09v336.07c54.61 1.879 108.99 4.634 163.15 8.245v-59.209c-34.26-2.285-68.61-4.222-103.06-5.826v-279.28zm477.55 0.034h-66.01l-43.51 100.85-39.09-100.85h-65.02l69.87 180.21-76.27 176.79c21.1 2.058 42.14 4.254 63.16 6.574l44.36-102.79 43.93 113.31c22.88 2.942 45.7 6.012 68.48 9.263l0.1-0.039-78.28-201.89 78.28-181.42zm-743.91 333.1 60.093-0.013v-136.7h81.46v-59.209h-81.46v-77.428h107.66v-59.742h-167.75v333.1zm-224.4-273.36h62.893v276.88c19.996-0.756 40.033-1.378 60.091-1.903v-274.98h62.89v-59.741h-185.87v59.741zm-205.44 294.09c55.385-5.033 111.02-9.181 166.92-12.4v-59.216c-35.711 2.064-71.321 4.508-106.83 7.3v-89.641c23.297-0.232 53.974-0.943 81.151-0.605v-59.214c-21.712-0.053-56.608 0.303-81.151 0.617v-80.924h106.83v-59.742h-166.92v353.82zm-117.88-136.88-78.265-216.94h-57.11v383.36c19.992-2.846 40.022-5.571 60.091-8.185v-208.47l69.591 199.91c21.888-2.538 43.815-4.942 65.785-7.202v-359.42h-60.092v216.94zm966.68 130.9c20.06 1.535 40.09 3.182 60.1 4.962v-352.81h-60.1v347.85z" fill="#ed1c24" fill-rule="nonzero"/></g></svg>
